<svg width="686" height="48" viewBox="0 0 686 48" fill="none" xmlns="http://www.w3.org/2000/svg">
<path d="M202.766 37.6C200.316 37.6 198.025 37.1917 195.891 36.375C193.775 35.5417 191.908 34.3667 190.291 32.85C188.691 31.3333 187.433 29.5333 186.516 27.45C185.616 25.35 185.166 23.025 185.166 20.475C185.166 17.9417 185.641 15.6333 186.591 13.55C187.558 11.45 188.875 9.64167 190.541 8.125C192.208 6.60833 194.125 5.44167 196.291 4.625C198.458 3.80833 200.766 3.4 203.216 3.4C205.55 3.4 207.783 3.78333 209.916 4.55C212.066 5.31666 213.975 6.40833 215.641 7.825C217.325 9.225 218.65 10.9 219.616 12.85C220.583 14.8 221.066 16.9583 221.066 19.325C221.066 21.3917 220.633 23.075 219.766 24.375C218.916 25.6583 217.85 26.6 216.566 27.2C215.283 27.8 213.991 28.1 212.691 28.1C211.591 28.1 210.658 27.85 209.891 27.35C209.141 26.85 208.591 26.275 208.241 25.625C208.008 26.125 207.641 26.6333 207.141 27.15C206.641 27.6667 205.95 28.1 205.066 28.45C204.2 28.7833 203.075 28.95 201.691 28.95C200.141 28.95 198.75 28.5667 197.516 27.8C196.3 27.0333 195.333 26.0167 194.616 24.75C193.9 23.4667 193.541 22.0667 193.541 20.55C193.541 19.0333 193.866 17.6917 194.516 16.525C195.166 15.3417 196.058 14.4083 197.191 13.725C198.325 13.0417 199.633 12.7 201.116 12.7C201.816 12.7 202.475 12.7917 203.091 12.975C203.708 13.1583 204.275 13.4083 204.791 13.725C205.325 14.0417 205.8 14.4 206.216 14.8V13.2H210.891V21.025C210.891 21.325 210.933 21.65 211.016 22C211.1 22.35 211.275 22.65 211.541 22.9C211.808 23.15 212.2 23.275 212.716 23.275C213.25 23.275 213.708 23.1333 214.091 22.85C214.475 22.55 214.775 22.0833 214.991 21.45C215.208 20.8167 215.316 20.0083 215.316 19.025C215.316 17.525 215.016 16.1417 214.416 14.875C213.816 13.6083 212.975 12.5 211.891 11.55C210.808 10.6 209.525 9.86667 208.041 9.35C206.575 8.81667 204.966 8.55 203.216 8.55C201.516 8.55 199.916 8.86667 198.416 9.5C196.933 10.1167 195.625 10.975 194.491 12.075C193.375 13.1583 192.491 14.425 191.841 15.875C191.208 17.3083 190.891 18.8417 190.891 20.475C190.891 22.1083 191.191 23.625 191.791 25.025C192.408 26.425 193.25 27.65 194.316 28.7C195.4 29.7333 196.658 30.5417 198.091 31.125C199.541 31.7083 201.1 32 202.766 32C203.983 32 205.066 31.8667 206.016 31.6C206.983 31.3333 207.791 31.0083 208.441 30.625C209.091 30.225 209.558 29.85 209.841 29.5L214.566 33.525C214.116 34.1083 213.358 34.7167 212.291 35.35C211.241 35.9833 209.916 36.5167 208.316 36.95C206.716 37.3833 204.866 37.6 202.766 37.6ZM202.966 24C203.933 24 204.716 23.675 205.316 23.025C205.933 22.3583 206.241 21.5667 206.241 20.65C206.241 20.0333 206.091 19.4917 205.791 19.025C205.491 18.5417 205.091 18.1583 204.591 17.875C204.108 17.5917 203.566 17.45 202.966 17.45C202 17.45 201.2 17.7667 200.566 18.4C199.933 19.0167 199.616 19.7833 199.616 20.7C199.616 21.6167 199.925 22.4 200.541 23.05C201.158 23.6833 201.966 24 202.966 24ZM230.227 28.35C230.277 29.0833 230.51 29.7333 230.927 30.3C231.344 30.8667 231.919 31.3167 232.652 31.65C233.402 31.9667 234.285 32.125 235.302 32.125C236.269 32.125 237.135 32.025 237.902 31.825C238.685 31.625 239.36 31.375 239.927 31.075C240.51 30.775 240.96 30.4667 241.277 30.15L244.227 34.85C243.81 35.3 243.219 35.7417 242.452 36.175C241.702 36.5917 240.71 36.9333 239.477 37.2C238.244 37.4667 236.685 37.6 234.802 37.6C232.535 37.6 230.519 37.175 228.752 36.325C226.985 35.475 225.594 34.225 224.577 32.575C223.56 30.925 223.052 28.9083 223.052 26.525C223.052 24.525 223.485 22.725 224.352 21.125C225.235 19.5083 226.51 18.2333 228.177 17.3C229.844 16.35 231.852 15.875 234.202 15.875C236.435 15.875 238.369 16.2833 240.002 17.1C241.652 17.9167 242.919 19.1333 243.802 20.75C244.702 22.35 245.152 24.35 245.152 26.75C245.152 26.8833 245.144 27.15 245.127 27.55C245.127 27.95 245.11 28.2167 245.077 28.35H230.227ZM238.002 24.375C237.985 23.8417 237.844 23.3167 237.577 22.8C237.31 22.2667 236.91 21.8333 236.377 21.5C235.844 21.15 235.16 20.975 234.327 20.975C233.494 20.975 232.785 21.1417 232.202 21.475C231.635 21.7917 231.202 22.2083 230.902 22.725C230.602 23.2417 230.435 23.7917 230.402 24.375H238.002ZM256.679 37H249.054V2.6H256.679V37ZM267.629 28.35C267.679 29.0833 267.913 29.7333 268.329 30.3C268.746 30.8667 269.321 31.3167 270.054 31.65C270.804 31.9667 271.688 32.125 272.704 32.125C273.671 32.125 274.538 32.025 275.304 31.825C276.088 31.625 276.763 31.375 277.329 31.075C277.913 30.775 278.363 30.4667 278.679 30.15L281.629 34.85C281.213 35.3 280.621 35.7417 279.854 36.175C279.104 36.5917 278.113 36.9333 276.879 37.2C275.646 37.4667 274.088 37.6 272.204 37.6C269.938 37.6 267.921 37.175 266.154 36.325C264.388 35.475 262.996 34.225 261.979 32.575C260.963 30.925 260.454 28.9083 260.454 26.525C260.454 24.525 260.888 22.725 261.754 21.125C262.638 19.5083 263.913 18.2333 265.579 17.3C267.246 16.35 269.254 15.875 271.604 15.875C273.838 15.875 275.771 16.2833 277.404 17.1C279.054 17.9167 280.321 19.1333 281.204 20.75C282.104 22.35 282.554 24.35 282.554 26.75C282.554 26.8833 282.546 27.15 282.529 27.55C282.529 27.95 282.513 28.2167 282.479 28.35H267.629ZM275.404 24.375C275.388 23.8417 275.246 23.3167 274.979 22.8C274.713 22.2667 274.313 21.8333 273.779 21.5C273.246 21.15 272.563 20.975 271.729 20.975C270.896 20.975 270.188 21.1417 269.604 21.475C269.038 21.7917 268.604 22.2083 268.304 22.725C268.004 23.2417 267.838 23.7917 267.804 24.375H275.404ZM297.607 31.625C298.557 31.625 299.34 31.4667 299.957 31.15C300.574 30.8167 300.99 30.55 301.207 30.35L304.682 35.5C304.415 35.7167 303.957 36 303.307 36.35C302.657 36.6833 301.84 36.975 300.857 37.225C299.89 37.475 298.782 37.6 297.532 37.6C295.182 37.6 293.115 37.1583 291.332 36.275C289.549 35.375 288.157 34.1083 287.157 32.475C286.174 30.8417 285.682 28.925 285.682 26.725C285.682 24.5083 286.174 22.5917 287.157 20.975C288.157 19.3583 289.549 18.1083 291.332 17.225C293.115 16.325 295.182 15.875 297.532 15.875C298.765 15.875 299.865 16.0083 300.832 16.275C301.815 16.525 302.64 16.8167 303.307 17.15C303.974 17.4667 304.44 17.7417 304.707 17.975L301.157 23.175C301.04 23.0583 300.824 22.8917 300.507 22.675C300.207 22.4583 299.815 22.2667 299.332 22.1C298.849 21.9333 298.274 21.85 297.607 21.85C296.79 21.85 296.024 22.0583 295.307 22.475C294.607 22.8917 294.04 23.4667 293.607 24.2C293.174 24.9333 292.957 25.775 292.957 26.725C292.957 27.675 293.174 28.525 293.607 29.275C294.04 30.0083 294.607 30.5833 295.307 31C296.024 31.4167 296.79 31.625 297.607 31.625ZM305.826 16.475H309.326V8.05H316.851V16.475H321.451V22.725H316.851V28.45C316.851 29.3 316.976 29.9917 317.226 30.525C317.476 31.0417 317.934 31.3 318.601 31.3C319.051 31.3 319.434 31.2 319.751 31C320.067 30.8 320.259 30.6667 320.326 30.6L322.926 36C322.809 36.1 322.442 36.2833 321.826 36.55C321.226 36.8167 320.459 37.0583 319.526 37.275C318.592 37.4917 317.551 37.6 316.401 37.6C314.351 37.6 312.659 37.025 311.326 35.875C309.992 34.7083 309.326 32.9167 309.326 30.5V22.725H305.826V16.475ZM332.69 37H325.09V16.475H332.69V19.65H332.565C332.698 19.2667 333.023 18.7833 333.54 18.2C334.056 17.6 334.781 17.0667 335.715 16.6C336.648 16.1167 337.79 15.875 339.14 15.875C340.09 15.875 340.965 16.025 341.765 16.325C342.565 16.6083 343.148 16.8833 343.515 17.15L340.565 23.325C340.331 23.0417 339.915 22.75 339.315 22.45C338.731 22.1333 337.998 21.975 337.115 21.975C336.098 21.975 335.256 22.2333 334.59 22.75C333.94 23.2667 333.456 23.8917 333.14 24.625C332.84 25.3583 332.69 26.05 332.69 26.7V37ZM345.814 37V16.475H353.414V37H345.814ZM349.714 12.25C348.514 12.25 347.497 11.8333 346.664 11C345.831 10.15 345.414 9.14167 345.414 7.975C345.414 6.80833 345.831 5.8 346.664 4.95C347.514 4.08333 348.531 3.65 349.714 3.65C350.497 3.65 351.214 3.85 351.864 4.25C352.514 4.63333 353.039 5.15 353.439 5.8C353.839 6.45 354.039 7.175 354.039 7.975C354.039 9.14167 353.614 10.15 352.764 11C351.914 11.8333 350.897 12.25 349.714 12.25ZM369.775 31.625C370.725 31.625 371.508 31.4667 372.125 31.15C372.741 30.8167 373.158 30.55 373.375 30.35L376.85 35.5C376.583 35.7167 376.125 36 375.475 36.35C374.825 36.6833 374.008 36.975 373.025 37.225C372.058 37.475 370.95 37.6 369.7 37.6C367.35 37.6 365.283 37.1583 363.5 36.275C361.716 35.375 360.325 34.1083 359.325 32.475C358.341 30.8417 357.85 28.925 357.85 26.725C357.85 24.5083 358.341 22.5917 359.325 20.975C360.325 19.3583 361.716 18.1083 363.5 17.225C365.283 16.325 367.35 15.875 369.7 15.875C370.933 15.875 372.033 16.0083 373 16.275C373.983 16.525 374.808 16.8167 375.475 17.15C376.141 17.4667 376.608 17.7417 376.875 17.975L373.325 23.175C373.208 23.0583 372.991 22.8917 372.675 22.675C372.375 22.4583 371.983 22.2667 371.5 22.1C371.016 21.9333 370.441 21.85 369.775 21.85C368.958 21.85 368.191 22.0583 367.475 22.475C366.775 22.8917 366.208 23.4667 365.775 24.2C365.341 24.9333 365.125 25.775 365.125 26.725C365.125 27.675 365.341 28.525 365.775 29.275C366.208 30.0083 366.775 30.5833 367.475 31C368.191 31.4167 368.958 31.625 369.775 31.625ZM379.814 37V2.6H387.414V19.475C387.564 19.0083 387.947 18.5 388.564 17.95C389.197 17.3833 390.022 16.9 391.039 16.5C392.072 16.0833 393.239 15.875 394.539 15.875C396.539 15.875 398.272 16.3667 399.739 17.35C401.206 18.3333 402.339 19.65 403.139 21.3C403.939 22.9333 404.339 24.75 404.339 26.75C404.339 28.75 403.939 30.575 403.139 32.225C402.339 33.8583 401.206 35.1667 399.739 36.15C398.272 37.1167 396.539 37.6 394.539 37.6C393.439 37.6 392.397 37.4 391.414 37C390.447 36.6167 389.606 36.125 388.889 35.525C388.189 34.9083 387.672 34.2917 387.339 33.675V37H379.814ZM396.889 26.75C396.889 25.8167 396.681 24.9833 396.264 24.25C395.864 23.5 395.306 22.9167 394.589 22.5C393.889 22.0667 393.097 21.85 392.214 21.85C391.297 21.85 390.472 22.0667 389.739 22.5C389.022 22.9167 388.456 23.5 388.039 24.25C387.622 24.9833 387.414 25.8167 387.414 26.75C387.414 27.6833 387.622 28.525 388.039 29.275C388.456 30.0083 389.022 30.5833 389.739 31C390.472 31.4167 391.297 31.625 392.214 31.625C393.097 31.625 393.889 31.4167 394.589 31C395.306 30.5833 395.864 30.0083 396.264 29.275C396.681 28.525 396.889 27.6833 396.889 26.75ZM415.069 25.975C415.069 27.6083 415.377 28.9167 415.994 29.9C416.61 30.8667 417.644 31.35 419.094 31.35C420.577 31.35 421.619 30.8667 422.219 29.9C422.835 28.9167 423.144 27.6083 423.144 25.975V16.475H430.644V26.775C430.644 28.975 430.185 30.8917 429.269 32.525C428.369 34.1417 427.06 35.3917 425.344 36.275C423.627 37.1583 421.544 37.6 419.094 37.6C416.66 37.6 414.585 37.1583 412.869 36.275C411.152 35.3917 409.844 34.1417 408.944 32.525C408.044 30.8917 407.594 28.975 407.594 26.775V16.475H415.069V25.975ZM463.486 15.875C465.036 15.875 466.403 16.2 467.586 16.85C468.769 17.4833 469.694 18.4667 470.361 19.8C471.044 21.1333 471.386 22.85 471.386 24.95V37H463.911V26.1C463.911 24.6667 463.694 23.5083 463.261 22.625C462.828 21.7417 461.969 21.3 460.686 21.3C459.919 21.3 459.244 21.5 458.661 21.9C458.078 22.3 457.628 22.8583 457.311 23.575C456.994 24.275 456.836 25.1167 456.836 26.1V37H449.861V26.1C449.861 24.6667 449.619 23.5083 449.136 22.625C448.669 21.7417 447.836 21.3 446.636 21.3C445.869 21.3 445.194 21.5 444.611 21.9C444.028 22.2833 443.578 22.8333 443.261 23.55C442.961 24.25 442.811 25.1 442.811 26.1V37H435.261V16.475H442.811V19.4C443.011 18.8833 443.444 18.3583 444.111 17.825C444.794 17.275 445.636 16.8167 446.636 16.45C447.636 16.0667 448.694 15.875 449.811 15.875C451.028 15.875 452.044 16.0583 452.861 16.425C453.678 16.775 454.344 17.25 454.861 17.85C455.394 18.45 455.819 19.1 456.136 19.8C456.369 19.2 456.828 18.6 457.511 18C458.211 17.3833 459.078 16.875 460.111 16.475C461.161 16.075 462.286 15.875 463.486 15.875ZM483.263 47.4H475.738V16.475H483.338V19.475C483.572 19.0083 484.013 18.5 484.663 17.95C485.33 17.3833 486.172 16.9 487.188 16.5C488.222 16.0833 489.388 15.875 490.688 15.875C492.688 15.875 494.397 16.3667 495.813 17.35C497.247 18.3333 498.347 19.65 499.113 21.3C499.88 22.9333 500.263 24.75 500.263 26.75C500.263 28.75 499.855 30.575 499.038 32.225C498.222 33.8583 497.072 35.1667 495.588 36.15C494.122 37.1167 492.388 37.6 490.388 37.6C488.955 37.6 487.73 37.35 486.713 36.85C485.713 36.3333 484.922 35.7667 484.338 35.15C483.772 34.5167 483.413 34.025 483.263 33.675V47.4ZM492.838 26.75C492.838 25.8167 492.63 24.9833 492.213 24.25C491.797 23.5 491.23 22.9167 490.513 22.5C489.813 22.0667 489.022 21.85 488.138 21.85C487.222 21.85 486.397 22.0667 485.663 22.5C484.947 22.9167 484.38 23.5 483.963 24.25C483.547 24.9833 483.338 25.8167 483.338 26.75C483.338 27.6833 483.547 28.525 483.963 29.275C484.38 30.0083 484.947 30.5833 485.663 31C486.397 31.4167 487.222 31.625 488.138 31.625C489.022 31.625 489.813 31.4167 490.513 31C491.23 30.5833 491.797 30.0083 492.213 29.275C492.63 28.525 492.838 27.6833 492.838 26.75Z" fill="url(#paint0_linear_34_22)"/>
<path d="M160.161 28.8071C164.933 28.8071 168.802 25.2487 168.802 20.8594C168.802 16.4701 164.933 12.9118 160.161 12.9118C155.388 12.9118 151.52 16.4701 151.52 20.8594C151.52 25.2487 155.388 28.8071 160.161 28.8071Z" stroke="url(#paint1_linear_34_22)" stroke-width="4.5491" stroke-linecap="round" stroke-linejoin="round"/>
<path d="M140.718 28.8071V12.9118C140.718 7.42507 145.554 2.9772 151.52 2.9772H168.802C174.768 2.9772 179.604 7.42507 179.604 12.9118V28.8071C179.604 34.2938 174.768 38.7417 168.802 38.7417H151.52C145.554 38.7417 140.718 34.2938 140.718 28.8071Z" stroke="url(#paint2_linear_34_22)" stroke-width="4.5491"/>
<path d="M172.043 9.95189L172.063 9.9292" stroke="url(#paint3_linear_34_22)" stroke-width="4.5491" stroke-linecap="round" stroke-linejoin="round"/>
<defs>
<linearGradient id="paint0_linear_34_22" x1="77.303" y1="24.4756" x2="592.822" y2="29.8396" gradientUnits="userSpaceOnUse">
<stop stop-color="#E94A00"/>
<stop offset="1" stop-color="#FAE425"/>
</linearGradient>
<linearGradient id="paint1_linear_34_22" x1="160.161" y1="12.9118" x2="160.161" y2="28.8071" gradientUnits="userSpaceOnUse">
<stop stop-color="#E94A00"/>
<stop offset="1" stop-color="#FAE425"/>
</linearGradient>
<linearGradient id="paint2_linear_34_22" x1="160.161" y1="2.9772" x2="160.161" y2="38.7417" gradientUnits="userSpaceOnUse">
<stop stop-color="#E94A00"/>
<stop offset="1" stop-color="#FAE425"/>
</linearGradient>
<linearGradient id="paint3_linear_34_22" x1="172.053" y1="9.9292" x2="172.053" y2="9.95189" gradientUnits="userSpaceOnUse">
<stop stop-color="#E94A00"/>
<stop offset="1" stop-color="#FAE425"/>
</linearGradient>
</defs>
</svg>
